<?xml version="1.0" standalone="no"?>
<!DOCTYPE svg PUBLIC "-//W3C//DTD SVG 20010904//EN"
 "http://www.w3.org/TR/2001/REC-SVG-20010904/DTD/svg10.dtd">
<svg version="1.0" xmlns="http://www.w3.org/2000/svg"
 width="512.000000pt" height="512.000000pt" viewBox="0 0 512.000000 512.000000"
 preserveAspectRatio="xMidYMid meet">
<metadata>
Created by potrace 1.11, written by Peter Selinger 2001-2013
</metadata>
<g transform="translate(0.000000,512.000000) scale(0.100000,-0.100000)"
fill="#000000" stroke="none">
<path d="M2162 5103 c-47 -26 -127 -107 -173 -177 -82 -125 -160 -321 -184
-466 -14 -83 -25 -105 -72 -145 -78 -65 -508 -438 -513 -444 -3 -4 -50 -44
-105 -91 -55 -47 -113 -97 -130 -112 -16 -14 -84 -73 -149 -130 -164 -142
-222 -227 -261 -388 -23 -91 -10 -248 25 -335 39 -93 56 -127 95 -186 101
-154 136 -172 231 -120 58 31 75 31 103 -3 24 -28 116 -75 182 -92 148 -38
291 -2 386 98 28 29 96 133 106 161 4 14 287 16 287 2 0 -17 -49 -115 -70
-142 -41 -52 -128 -140 -215 -218 -138 -122 -327 -313 -382 -385 -154 -199
-242 -410 -278 -665 -14 -97 -17 -327 -5 -412 l6 -53 -155 -1 c-86 0 -163 -2
-171 -4 -61 -13 -121 -63 -146 -124 -13 -30 -15 -79 -12 -286 l3 -250 26 -40
c16 -24 47 -51 76 -68 l50 -27 1834 0 c1193 0 1846 4 1869 10 39 11 85 49 115
95 19 28 20 48 20 296 l0 265 -25 37 c-28 41 -90 87 -117 87 -37 0 -44 14 -34
61 5 24 12 56 15 72 2 15 7 35 10 45 3 9 7 28 10 42 2 14 16 86 29 160 14 74
28 158 31 185 4 28 9 64 11 80 3 17 7 46 9 65 3 19 7 55 11 80 34 256 41 960
11 1128 -2 9 -7 44 -10 77 -4 33 -9 72 -12 86 -2 14 -6 41 -8 60 -3 19 -7 46
-10 59 -3 14 -8 36 -10 50 -2 14 -7 36 -10 50 -3 14 -8 36 -10 50 -10 58 -70
267 -107 372 -80 225 -236 507 -372 673 -113 138 -305 303 -462 397 -54 32
-218 116 -230 117 -3 1 -21 7 -41 16 -41 17 -183 62 -216 69 -13 3 -63 14
-113 24 -140 31 -287 49 -412 51 l-42 1 -37 75 c-42 85 -112 161 -164 175 -47
13 -50 13 -88 -7z m638 -479 c172 -30 323 -76 443 -133 36 -17 68 -31 71 -31
15 0 194 -117 263 -173 138 -109 282 -272 372 -422 103 -170 228 -466 271
-640 6 -27 14 -59 17 -70 7 -30 24 -107 29 -135 2 -14 7 -36 9 -50 9 -41 22
-126 31 -195 12 -91 13 -99 21 -195 10 -124 10 -584 0 -725 -13 -180 -24 -293
-31 -332 -3 -12 -7 -46 -11 -76 -4 -46 -37 -241 -60 -362 -10 -51 -45 -208
-56 -247 l-10 -38 -60 0 c-53 0 -60 2 -55 18 10 36 35 148 40 177 3 17 17 95
30 175 14 80 28 172 32 205 3 33 8 68 10 79 2 10 6 44 9 75 3 31 8 70 10 86
19 152 27 697 12 885 -7 99 -40 348 -57 435 -5 28 -12 64 -15 80 -14 71 -69
268 -101 359 -223 640 -626 1047 -1208 1222 -49 14 -103 29 -120 31 -17 3 -36
6 -43 7 -7 1 -16 6 -20 10 -9 9 52 2 177 -20z m-1220 -4224 l0 -200 -410 0
-410 0 0 200 0 200 410 0 410 0 0 -200z"/>
</g>
</svg>
